{"accessors" : [{"bufferView" : 0, "byteOffset" : 0, "componentType" : 5123, "count" : 1248, "type" : "SCALAR", "max" : [1048], "min" : [0]}, {"bufferView" : 1, "byteOffset" : 0, "componentType" : 5126, "count" : 1049, "type" : "VEC3", "max" : [15.941240310668945, 10.612519264221191, 75.36486053466797], "min" : [-15.903194427490234, -13.30615234375, 41.763648986816406], "name" : "POSITION"}, {"bufferView" : 1, "byteOffset" : 12, "componentType" : 5126, "count" : 1049, "type" : "VEC3", "max" : [1.0000044107437134, 0.9999436140060425, 0.9999436140060425], "min" : [-1.0000044107437134, -0.999943733215332, -0.9999436140060425], "name" : "NORMAL"}], "asset" : {"generator" : "Aspose.3D 21.5", "version" : "2.0"}, "buffers" : [{"uri" : "data:application/octet-stream;base64,", "byteLength" : 32456}], "bufferViews" : [{"buffer" : 0, "byteOffset" : 0, "byteLength" : 2496, "target" : 34963}, {"buffer" : 0, "byteOffset" : 2500, "byteLength" : 29952, "byteStride" : 24, "target" : 34962}], "meshes" : [{"primitives" : [{"attributes" : {"POSITION" : 1, "NORMAL" : 2}, "indices" : 0, "mode" : 4}]}], "nodes" : [{"mesh" : 0, "name" : ""}], "scene" : 0, "scenes" : [{"nodes" : [0]}]}